<svg width="485" height="541" viewBox="0 0 485 541" fill="none" xmlns="http://www.w3.org/2000/svg">
<path d="M0 65.1748C0 33.9966 31.5316 12.7094 60.4491 24.3651L340.674 137.315C352.039 141.896 360.98 151.009 365.342 162.461L445.098 371.819C454.398 396.233 440.501 423.327 415.246 430.016L55.2656 525.362C27.3495 532.756 0 511.707 0 482.829V65.1748Z" fill="#C05C18"/>
<path d="M22 66.1748C22 34.9966 53.5316 13.7094 82.4491 25.3651L362.674 138.315C374.039 142.896 382.98 152.009 387.342 163.461L467.098 372.819C476.398 397.233 462.501 424.327 437.246 431.016L77.2656 526.362C49.3495 533.756 22 512.707 22 483.829V66.1748Z" fill="#FF6700"/>
</svg>
